<?xml version="1.0" encoding="utf-8"?><svg version="1.1" id="Layer_1" xmlns="http://www.w3.org/2000/svg" xmlns:xlink="http://www.w3.org/1999/xlink" x="0px" y="0px" viewBox="0 0 122.88 70.51" style="enable-background:new 0 0 122.88 70.51" xml:space="preserve"><style type="text/css">.st0{fill-rule:evenodd;clip-rule:evenodd;}</style><g><path class="st0" d="M87.4,23.62l9.13,0.03c-0.01,2.43-0.99,4.76-2.72,6.47c-0.41,0.4-0.86,0.77-1.33,1.09L87.4,23.62L87.4,23.62 L87.4,23.62z M15.67,0h90.97c1.19,0,2.17,0.98,2.17,2.17v61.16c0,1.01-0.69,1.86-1.63,2.1h13.16c1.4,0,2.54,1.14,2.54,2.54l0,0 c0,1.4-1.14,2.54-2.54,2.54H2.54c-1.4,0-2.54-1.14-2.54-2.54l0,0c0-1.4,1.14-2.54,2.54-2.54h12.59c-0.93-0.24-1.63-1.1-1.63-2.1 V2.17C13.5,0.98,14.48,0,15.67,0L15.67,0z M17.21,3.4h88.19v59.32H17.21V3.4L17.21,3.4z M57.87,66.39h7.14 c0.67,0,1.22,0.55,1.22,1.22l0,0c0,0.67-0.55,1.22-1.22,1.22h-7.14c-0.67,0-1.22-0.55-1.22-1.22l0,0 C56.65,66.93,57.2,66.39,57.87,66.39L57.87,66.39z M37.59,16.45h2.78c0.15,0,0.27,0.12,0.27,0.27v9.91c0,0.15-0.12,0.27-0.27,0.27 h-2.78c-0.15,0-0.27-0.12-0.27-0.27v-9.91C37.32,16.57,37.44,16.45,37.59,16.45L37.59,16.45z M25.01,13.1h2.78 c0.15,0,0.27,0.12,0.27,0.27v13.26c0,0.15-0.12,0.27-0.27,0.27h-2.78c-0.15,0-0.27-0.12-0.27-0.27V13.37 C24.74,13.22,24.86,13.1,25.01,13.1L25.01,13.1z M31.3,11.22h2.78c0.15,0,0.27,0.12,0.27,0.27v15.14c0,0.15-0.12,0.27-0.27,0.27 H31.3c-0.15,0-0.27-0.12-0.27-0.27V11.49C31.03,11.34,31.15,11.22,31.3,11.22L31.3,11.22z M25.17,52.65c-0.61,0-1.1-0.5-1.1-1.11 c0-0.61,0.49-1.11,1.1-1.11H97.7c0.61,0,1.1,0.5,1.1,1.11c0,0.61-0.49,1.11-1.1,1.11H25.17L25.17,52.65z M24.99,44.56 c-0.61,0-1.1-0.5-1.1-1.11c0-0.61,0.49-1.11,1.1-1.11h31.16c0.61,0,1.1,0.5,1.1,1.11c0,0.61-0.49,1.11-1.1,1.11H24.99L24.99,44.56z M60.41,44.56c-0.61,0-1.1-0.5-1.1-1.11c0-0.61,0.49-1.11,1.1-1.11H97.7c0.61,0,1.1,0.5,1.1,1.11c0,0.61-0.49,1.11-1.1,1.11H60.41 L60.41,44.56z M24.99,37.34c-0.61,0-1.1-0.5-1.1-1.11s0.49-1.11,1.1-1.11h47.07c0.61,0,1.1,0.5,1.1,1.11s-0.49,1.11-1.1,1.11H24.99 L24.99,37.34z M86.46,21.81l-0.49-9.76c-0.01-0.19,0.14-0.36,0.33-0.37c0.06,0,0.12-0.01,0.2-0.01c0.06,0,0.13,0,0.2,0 c2.68-0.03,5.14,0.99,6.98,2.68c1.84,1.69,3.05,4.06,3.25,6.74c0.01,0.19-0.13,0.36-0.32,0.37l-9.76,0.7 c-0.19,0.01-0.36-0.13-0.37-0.32C86.46,21.82,86.46,21.81,86.46,21.81L86.46,21.81L86.46,21.81z M86.69,12.37l0.45,9.06l9.05-0.65 c-0.25-2.35-1.36-4.42-2.99-5.92c-1.71-1.58-4-2.52-6.5-2.49L86.69,12.37L86.69,12.37L86.69,12.37z M85.37,23.2l4.89,8.48 c-1.49,0.86-3.18,1.31-4.89,1.31c-5.41,0-9.79-4.38-9.79-9.79c0-4.86,3.56-8.98,8.37-9.68L85.37,23.2L85.37,23.2z"/></g></svg>