<svg xmlns="http://www.w3.org/2000/svg"  viewBox="0 0 333333 333333" shape-rendering="geometricPrecision" text-rendering="geometricPrecision" image-rendering="optimizeQuality" fill-rule="evenodd" clip-rule="evenodd"><path d="M166667 0c46023 0 87690 18655 117851 48816s48816 71828 48816 117851-18655 87690-48816 117851-71828 48816-117851 48816-87690-18655-117851-48816S0 212690 0 166667 18655 78977 48816 48816 120644 0 166667 0zm-50267 202221c-11193 0-20290 9126-20290 20250 0 11180 9096 20211 20290 20211 11228 0 20318-9032 20318-20211 0-11124-9087-20250-20318-20250zm-20270-59981v29214c19024 0 36901 7440 50367 20917 13452 13438 20880 31402 20880 50500h29339c0-55480-45142-100622-100586-100622v-9zm37-51776v29219c67839 0 123046 55264 123046 123179l29299 3c0-84011-68354-152398-152342-152398l-3-3zm177128-30425c-27287-27287-64987-44165-106628-44165-41642 0-79341 16878-106628 44165s-44165 64987-44165 106628c0 41642 16878 79341 44165 106628s64987 44165 106628 44165c41642 0 79341-16878 106628-44165s44165-64987 44165-106628c0-41642-16878-79341-44165-106628z" fill="#f26522" fill-rule="nonzero"/></svg>