<svg id="Layer_1" data-name="Layer 1" xmlns="http://www.w3.org/2000/svg" viewBox="0 0 122.88 122.88"><defs><style>.cls-1{fill:#046064;}.cls-1,.cls-2{fill-rule:evenodd;}.cls-2{fill:#fff;}</style></defs><title>xing-square</title><path class="cls-1" d="M25.2,0H97.68a25.27,25.27,0,0,1,25.2,25.2V97.68a25.27,25.27,0,0,1-25.2,25.2H25.2A25.27,25.27,0,0,1,0,97.68V25.2A25.27,25.27,0,0,1,25.2,0Z"/><path class="cls-2" d="M36.07,39.39a1.62,1.62,0,0,0-1.44.65,1.68,1.68,0,0,0,.06,1.62L41.8,54a.06.06,0,0,1,0,.06L30.63,73.74a1.62,1.62,0,0,0,0,1.61,1.56,1.56,0,0,0,1.37.72H42.52a3.22,3.22,0,0,0,2.87-2S56.31,54.71,56.74,54c-.05-.07-7.23-12.6-7.23-12.6a3.25,3.25,0,0,0-2.93-2Z"/><path class="cls-2" d="M80.24,25a3.07,3.07,0,0,0-2.81,2L54,68.48,69,95.89a3.28,3.28,0,0,0,2.94,2h10.5a1.54,1.54,0,0,0,1.39-.67,1.62,1.62,0,0,0,0-1.62L69,68.51a0,0,0,0,1,0,0,.06.06,0,0,1,0,0L92.24,27.28a1.64,1.64,0,0,0,0-1.62,1.56,1.56,0,0,0-1.4-.67Z"/></svg>